<mxfile host="app.diagrams.net" modified="2020-08-27T01:09:32.046Z" agent="5.0 (Windows NT 10.0; Win64; x64) AppleWebKit/537.36 (KHTML, like Gecko) Chrome/84.0.4147.135 Safari/537.36" etag="lWJUmtzIc82X-eF7lo4M" version="13.6.5" type="github">
  <diagram id="OOcqKcNYjB7kXi4ZYEpD" name="Page-1">
    <mxGraphModel dx="1037" dy="633" grid="1" gridSize="10" guides="1" tooltips="1" connect="1" arrows="1" fold="1" page="1" pageScale="1" pageWidth="1100" pageHeight="850" math="0" shadow="0">
      <root>
        <mxCell id="0" />
        <mxCell id="1" parent="0" />
        <mxCell id="wCuC4LIzT_82OhX56rjA-26" value="" style="rounded=1;whiteSpace=wrap;html=1;" vertex="1" parent="1">
          <mxGeometry x="670" y="255" width="120" height="210" as="geometry" />
        </mxCell>
        <mxCell id="wCuC4LIzT_82OhX56rjA-27" value="" style="rounded=1;whiteSpace=wrap;html=1;" vertex="1" parent="1">
          <mxGeometry x="490" y="380" width="120" height="210" as="geometry" />
        </mxCell>
        <mxCell id="wCuC4LIzT_82OhX56rjA-28" value="" style="rounded=1;whiteSpace=wrap;html=1;" vertex="1" parent="1">
          <mxGeometry x="370" y="25" width="120" height="210" as="geometry" />
        </mxCell>
        <mxCell id="wCuC4LIzT_82OhX56rjA-29" value="" style="rounded=1;whiteSpace=wrap;html=1;" vertex="1" parent="1">
          <mxGeometry x="590" y="25" width="120" height="210" as="geometry" />
        </mxCell>
        <mxCell id="wCuC4LIzT_82OhX56rjA-30" value="" style="rounded=1;whiteSpace=wrap;html=1;" vertex="1" parent="1">
          <mxGeometry x="870" y="205" width="120" height="210" as="geometry" />
        </mxCell>
        <mxCell id="wCuC4LIzT_82OhX56rjA-24" value="" style="rounded=1;whiteSpace=wrap;html=1;" vertex="1" parent="1">
          <mxGeometry x="290" y="235" width="120" height="210" as="geometry" />
        </mxCell>
        <mxCell id="wCuC4LIzT_82OhX56rjA-23" value="" style="group" vertex="1" connectable="0" parent="1">
          <mxGeometry x="80" y="200" width="120" height="210" as="geometry" />
        </mxCell>
        <mxCell id="wCuC4LIzT_82OhX56rjA-19" value="" style="rounded=1;whiteSpace=wrap;html=1;" vertex="1" parent="wCuC4LIzT_82OhX56rjA-23">
          <mxGeometry width="120" height="210" as="geometry" />
        </mxCell>
        <mxCell id="wCuC4LIzT_82OhX56rjA-21" value="AS100" style="text;html=1;strokeColor=none;fillColor=none;align=center;verticalAlign=middle;whiteSpace=wrap;rounded=0;" vertex="1" parent="wCuC4LIzT_82OhX56rjA-23">
          <mxGeometry x="40" y="20" width="40" height="20" as="geometry" />
        </mxCell>
        <mxCell id="wCuC4LIzT_82OhX56rjA-38" value="1.1.1.1/32" style="text;html=1;strokeColor=none;fillColor=none;align=center;verticalAlign=middle;whiteSpace=wrap;rounded=0;" vertex="1" parent="wCuC4LIzT_82OhX56rjA-23">
          <mxGeometry x="40" y="170" width="40" height="20" as="geometry" />
        </mxCell>
        <mxCell id="wCuC4LIzT_82OhX56rjA-10" style="rounded=0;orthogonalLoop=1;jettySize=auto;html=1;exitX=1;exitY=0.5;exitDx=0;exitDy=0;entryX=0;entryY=0.5;entryDx=0;entryDy=0;endArrow=none;endFill=0;" edge="1" parent="1" source="wCuC4LIzT_82OhX56rjA-1" target="wCuC4LIzT_82OhX56rjA-4">
          <mxGeometry relative="1" as="geometry" />
        </mxCell>
        <mxCell id="wCuC4LIzT_82OhX56rjA-1" value="R1 - Them" style="ellipse;whiteSpace=wrap;html=1;aspect=fixed;" vertex="1" parent="1">
          <mxGeometry x="100" y="270" width="80" height="80" as="geometry" />
        </mxCell>
        <mxCell id="wCuC4LIzT_82OhX56rjA-12" style="edgeStyle=none;rounded=0;orthogonalLoop=1;jettySize=auto;html=1;exitX=1;exitY=0.5;exitDx=0;exitDy=0;entryX=0;entryY=0.5;entryDx=0;entryDy=0;endArrow=none;endFill=0;" edge="1" parent="1" source="wCuC4LIzT_82OhX56rjA-2" target="wCuC4LIzT_82OhX56rjA-7">
          <mxGeometry relative="1" as="geometry" />
        </mxCell>
        <mxCell id="wCuC4LIzT_82OhX56rjA-2" value="R4 - Zayo" style="ellipse;whiteSpace=wrap;html=1;aspect=fixed;" vertex="1" parent="1">
          <mxGeometry x="390" y="100" width="80" height="80" as="geometry" />
        </mxCell>
        <mxCell id="wCuC4LIzT_82OhX56rjA-11" style="edgeStyle=none;rounded=0;orthogonalLoop=1;jettySize=auto;html=1;exitX=0.5;exitY=0;exitDx=0;exitDy=0;entryX=0;entryY=1;entryDx=0;entryDy=0;endArrow=none;endFill=0;" edge="1" parent="1" source="wCuC4LIzT_82OhX56rjA-4" target="wCuC4LIzT_82OhX56rjA-2">
          <mxGeometry relative="1" as="geometry" />
        </mxCell>
        <mxCell id="wCuC4LIzT_82OhX56rjA-15" style="edgeStyle=none;rounded=0;orthogonalLoop=1;jettySize=auto;html=1;exitX=1;exitY=1;exitDx=0;exitDy=0;entryX=0;entryY=0;entryDx=0;entryDy=0;endArrow=none;endFill=0;" edge="1" parent="1" source="wCuC4LIzT_82OhX56rjA-4" target="wCuC4LIzT_82OhX56rjA-5">
          <mxGeometry relative="1" as="geometry" />
        </mxCell>
        <mxCell id="wCuC4LIzT_82OhX56rjA-4" value="R2 - Comcast" style="ellipse;whiteSpace=wrap;html=1;aspect=fixed;" vertex="1" parent="1">
          <mxGeometry x="310" y="300" width="80" height="80" as="geometry" />
        </mxCell>
        <mxCell id="wCuC4LIzT_82OhX56rjA-5" value="R3 - You" style="ellipse;whiteSpace=wrap;html=1;aspect=fixed;" vertex="1" parent="1">
          <mxGeometry x="510" y="440" width="80" height="80" as="geometry" />
        </mxCell>
        <mxCell id="wCuC4LIzT_82OhX56rjA-16" style="edgeStyle=none;rounded=0;orthogonalLoop=1;jettySize=auto;html=1;exitX=0;exitY=0.5;exitDx=0;exitDy=0;entryX=1;entryY=0.5;entryDx=0;entryDy=0;endArrow=none;endFill=0;" edge="1" parent="1" source="wCuC4LIzT_82OhX56rjA-6" target="wCuC4LIzT_82OhX56rjA-8">
          <mxGeometry relative="1" as="geometry" />
        </mxCell>
        <mxCell id="wCuC4LIzT_82OhX56rjA-6" value="R7 - App 1" style="ellipse;whiteSpace=wrap;html=1;aspect=fixed;" vertex="1" parent="1">
          <mxGeometry x="890" y="280" width="80" height="80" as="geometry" />
        </mxCell>
        <mxCell id="wCuC4LIzT_82OhX56rjA-13" style="edgeStyle=none;rounded=0;orthogonalLoop=1;jettySize=auto;html=1;exitX=1;exitY=1;exitDx=0;exitDy=0;entryX=0.5;entryY=0;entryDx=0;entryDy=0;endArrow=none;endFill=0;" edge="1" parent="1" source="wCuC4LIzT_82OhX56rjA-7" target="wCuC4LIzT_82OhX56rjA-8">
          <mxGeometry relative="1" as="geometry" />
        </mxCell>
        <mxCell id="wCuC4LIzT_82OhX56rjA-7" value="R5 - L3" style="ellipse;whiteSpace=wrap;html=1;aspect=fixed;" vertex="1" parent="1">
          <mxGeometry x="610" y="100" width="80" height="80" as="geometry" />
        </mxCell>
        <mxCell id="wCuC4LIzT_82OhX56rjA-14" style="edgeStyle=none;rounded=0;orthogonalLoop=1;jettySize=auto;html=1;exitX=0;exitY=0.5;exitDx=0;exitDy=0;entryX=1;entryY=0;entryDx=0;entryDy=0;endArrow=none;endFill=0;" edge="1" parent="1" source="wCuC4LIzT_82OhX56rjA-8" target="wCuC4LIzT_82OhX56rjA-5">
          <mxGeometry relative="1" as="geometry" />
        </mxCell>
        <mxCell id="wCuC4LIzT_82OhX56rjA-8" value="R6 - AT&amp;amp;T" style="ellipse;whiteSpace=wrap;html=1;aspect=fixed;" vertex="1" parent="1">
          <mxGeometry x="680" y="320" width="80" height="80" as="geometry" />
        </mxCell>
        <mxCell id="wCuC4LIzT_82OhX56rjA-25" value="AS200" style="text;html=1;strokeColor=none;fillColor=none;align=center;verticalAlign=middle;whiteSpace=wrap;rounded=0;" vertex="1" parent="1">
          <mxGeometry x="300" y="250" width="40" height="20" as="geometry" />
        </mxCell>
        <mxCell id="wCuC4LIzT_82OhX56rjA-33" value="AS400" style="text;html=1;strokeColor=none;fillColor=none;align=center;verticalAlign=middle;whiteSpace=wrap;rounded=0;" vertex="1" parent="1">
          <mxGeometry x="410" y="40" width="40" height="20" as="geometry" />
        </mxCell>
        <mxCell id="wCuC4LIzT_82OhX56rjA-34" value="AS300" style="text;html=1;strokeColor=none;fillColor=none;align=center;verticalAlign=middle;whiteSpace=wrap;rounded=0;" vertex="1" parent="1">
          <mxGeometry x="520" y="390" width="40" height="20" as="geometry" />
        </mxCell>
        <mxCell id="wCuC4LIzT_82OhX56rjA-35" value="AS500" style="text;html=1;strokeColor=none;fillColor=none;align=center;verticalAlign=middle;whiteSpace=wrap;rounded=0;" vertex="1" parent="1">
          <mxGeometry x="620" y="40" width="40" height="20" as="geometry" />
        </mxCell>
        <mxCell id="wCuC4LIzT_82OhX56rjA-36" value="AS600" style="text;html=1;strokeColor=none;fillColor=none;align=center;verticalAlign=middle;whiteSpace=wrap;rounded=0;" vertex="1" parent="1">
          <mxGeometry x="730" y="270" width="40" height="20" as="geometry" />
        </mxCell>
        <mxCell id="wCuC4LIzT_82OhX56rjA-37" value="AS700" style="text;html=1;strokeColor=none;fillColor=none;align=center;verticalAlign=middle;whiteSpace=wrap;rounded=0;" vertex="1" parent="1">
          <mxGeometry x="910" y="220" width="40" height="20" as="geometry" />
        </mxCell>
        <mxCell id="wCuC4LIzT_82OhX56rjA-39" value="4.4.4.4/32" style="text;html=1;strokeColor=none;fillColor=none;align=center;verticalAlign=middle;whiteSpace=wrap;rounded=0;" vertex="1" parent="1">
          <mxGeometry x="420" y="200" width="40" height="20" as="geometry" />
        </mxCell>
        <mxCell id="wCuC4LIzT_82OhX56rjA-40" value="2.2.2.2/32" style="text;html=1;strokeColor=none;fillColor=none;align=center;verticalAlign=middle;whiteSpace=wrap;rounded=0;" vertex="1" parent="1">
          <mxGeometry x="320" y="395" width="40" height="20" as="geometry" />
        </mxCell>
        <mxCell id="wCuC4LIzT_82OhX56rjA-41" value="6.6.6.6/32" style="text;html=1;strokeColor=none;fillColor=none;align=center;verticalAlign=middle;whiteSpace=wrap;rounded=0;" vertex="1" parent="1">
          <mxGeometry x="710" y="420" width="40" height="20" as="geometry" />
        </mxCell>
        <mxCell id="wCuC4LIzT_82OhX56rjA-42" value="3.3.3.3/32" style="text;html=1;strokeColor=none;fillColor=none;align=center;verticalAlign=middle;whiteSpace=wrap;rounded=0;" vertex="1" parent="1">
          <mxGeometry x="530" y="540" width="40" height="20" as="geometry" />
        </mxCell>
        <mxCell id="wCuC4LIzT_82OhX56rjA-43" value="5.5.5.5/32" style="text;html=1;strokeColor=none;fillColor=none;align=center;verticalAlign=middle;whiteSpace=wrap;rounded=0;" vertex="1" parent="1">
          <mxGeometry x="620" y="200" width="40" height="20" as="geometry" />
        </mxCell>
        <mxCell id="wCuC4LIzT_82OhX56rjA-44" value="7.7.7.7/32" style="text;html=1;strokeColor=none;fillColor=none;align=center;verticalAlign=middle;whiteSpace=wrap;rounded=0;" vertex="1" parent="1">
          <mxGeometry x="910" y="380" width="40" height="20" as="geometry" />
        </mxCell>
      </root>
    </mxGraphModel>
  </diagram>
</mxfile>
